<?xml version="1.0" standalone="no"?>
<!DOCTYPE svg PUBLIC "-//W3C//DTD SVG 20010904//EN"
 "http://www.w3.org/TR/2001/REC-SVG-20010904/DTD/svg10.dtd">
<svg version="1.0" xmlns="http://www.w3.org/2000/svg"
 width="100.000000pt" height="100.000000pt" viewBox="0 0 100.000000 100.000000"
 preserveAspectRatio="xMidYMid meet">
<metadata>
Created by potrace 1.11, written by Peter Selinger 2001-2013
</metadata>
<g transform="translate(0.000000,100.000000) scale(0.100000,-0.100000)"
fill="#000000" stroke="none">
<path d="M528 854 c-57 -20 -87 -44 -116 -93 -25 -42 -30 -46 -63 -45 -54 3
-110 -33 -134 -83 -11 -23 -25 -42 -32 -43 -7 0 -28 -14 -47 -31 -19 -16 -39
-30 -43 -30 -4 -1 -10 -3 -13 -6 -3 -4 1 -3 8 1 9 5 12 -3 12 -31 0 -21 6 -49
13 -63 17 -33 72 -69 97 -63 27 7 27 -28 0 -52 -11 -10 -20 -23 -20 -30 0 -18
34 -45 58 -45 11 0 35 -13 53 -29 67 -61 168 -63 244 -5 31 24 35 24 57 10 13
-9 35 -17 48 -20 32 -5 89 19 107 44 10 14 21 18 41 14 39 -8 79 11 102 48 24
39 25 73 5 112 -19 35 -12 77 18 119 15 19 18 32 12 41 -6 7 -23 32 -38 56
-26 39 -32 42 -62 37 -32 -5 -35 -3 -46 31 -6 20 -18 48 -26 61 -13 20 -13 25
-2 33 11 8 10 9 -3 4 -26 -8 -31 11 -8 27 19 13 19 14 -12 15 -23 1 -28 -2
-18 -8 25 -16 6 -11 -36 9 -52 25 -111 31 -156 15z"/>
</g>
</svg>
